<svg xmlns="http://www.w3.org/2000/svg" xmlns:xlink="http://www.w3.org/1999/xlink" version="1.1" id="Layer_1" x="0px" y="0px" width="100%" viewBox="0 0 512 512" enable-background="new 0 0 512 512" xml:space="preserve">
<path fill="transparent" opacity="1.000000" stroke="none" d=" M513.000000,415.000000   C513.000000,447.647400 513.000000,480.294800 513.000000,512.971069   C342.453308,512.971069 171.906616,512.971069 1.000000,512.971069   C1.000000,471.312012 1.000000,429.622986 1.374779,387.632996   C2.802201,392.075531 3.562312,396.907043 4.958551,401.547150   C10.743826,420.773071 22.415224,436.048187 38.454327,447.601105   C53.574173,458.491913 70.829529,464.056244 89.700157,464.016022   C117.862411,463.955963 146.024902,464.015137 174.187195,463.965210   C175.936935,463.962097 177.817627,463.774261 179.412506,463.122253   C186.750427,460.122253 190.466415,453.378540 188.972916,446.179382   C187.662109,439.860809 180.991684,435.007568 173.521271,435.004364   C145.525543,434.992371 117.529663,435.042358 89.534225,434.950500   C85.613525,434.937653 81.573318,434.755615 77.794472,433.819824   C43.920242,425.431366 24.136885,394.595978 31.129377,360.526978   C36.524532,334.240662 59.730377,314.843933 86.474464,312.998840   C94.577393,312.439789 99.711540,308.287720 101.751404,300.530212   C102.288109,298.489136 102.608994,296.389465 102.988983,294.309387   C106.669296,274.163300 115.514809,256.355103 128.732346,240.968964   C140.690216,227.049194 155.127747,216.174835 172.231873,208.854172   C186.220032,202.867172 200.767776,199.562149 215.785553,199.220108   C224.696121,199.017181 233.715790,200.626907 242.582672,202.062408   C265.548584,205.780411 284.671143,217.384109 301.213257,233.024475   C311.912109,243.140106 320.062225,255.474243 326.100983,269.082092   C327.236511,271.640900 329.113251,274.092285 331.211914,275.959320   C336.769257,280.903198 343.113831,278.879333 349.301941,277.326874   C362.618530,273.985931 375.945679,274.167999 389.030457,278.115692   C404.769165,282.864075 418.103699,291.632996 428.673370,304.256866   C435.928925,312.922455 441.701385,322.565002 443.959717,333.801270   C445.654541,342.233795 446.526184,350.828735 448.060791,359.297607   C449.094971,365.004852 456.536133,370.289856 462.356964,369.909729   C469.814301,369.422699 476.183746,363.460083 475.915649,356.468994   C475.588715,347.944092 475.777588,339.156982 473.732666,330.986481   C467.956848,307.909149 457.012390,287.644318 438.038177,272.421844   C437.305176,271.833771 436.715607,270.217316 436.979553,269.365143   C440.306671,258.622772 443.803284,247.932861 447.330505,237.000443   C462.046936,237.000443 477.208008,237.050705 492.368469,236.980225   C500.506561,236.942383 508.198425,230.142822 507.851501,222.629410   C507.494385,214.896103 502.474213,207.648300 492.445709,207.899170   C477.145844,208.281921 461.829315,207.999496 446.221283,207.999496   C443.560791,188.078781 436.066376,170.366669 424.109344,154.389069   C434.636200,143.865875 445.149139,133.410965 455.597870,122.892281   C462.499207,115.944725 463.115234,106.585968 457.175720,100.672394   C450.624115,94.149399 442.153625,94.401207 435.070679,101.431747   C424.448334,111.975510 413.880188,122.573822 403.179810,133.257935   C401.732971,132.341309 400.486237,131.602234 399.291565,130.786819   C386.138458,121.809067 371.902771,114.841240 356.200684,112.459518   C349.631287,111.463066 349.928040,108.674385 349.964539,104.179886   C350.067383,91.515984 350.213013,78.844849 349.864441,66.189720   C349.766266,62.625240 348.786896,58.606651 346.869690,55.673519   C343.247681,50.132103 336.273682,48.653393 329.769318,50.985390   C323.948120,53.072449 321.008148,57.616882 321.002777,64.612503   C320.991913,78.777000 321.086945,92.942795 320.880859,107.104309   C320.856995,108.744995 319.371277,111.653679 318.280609,111.795158   C303.202118,113.751038 289.493408,119.259300 276.605774,127.076210   C273.309296,129.075668 270.076233,131.179688 266.710541,133.300903   C255.961136,122.517830 245.224838,112.272049 235.124298,101.433792   C228.250671,94.058128 218.023849,95.248451 213.312653,100.125214   C207.121475,106.533974 207.534775,115.035522 214.689758,122.191612   C225.163681,132.667145 235.642044,143.138214 246.356201,153.848816   C244.521606,156.549316 242.283066,158.883682 241.170349,161.667969   C238.191635,169.121307 233.998077,171.259872 225.322083,170.492401   C213.890701,169.481171 201.988831,171.098251 190.569122,173.146011   C155.268112,179.476089 126.238716,197.101898 103.800209,224.923050   C90.341713,241.610016 80.685585,260.502930 75.844818,281.644897   C75.465919,283.299744 73.500244,285.202087 71.833969,285.833710   C67.323692,287.543396 62.437904,288.272552 57.947540,290.022949   C32.699013,299.865143 15.273140,317.541809 6.023489,343.035858   C3.908861,348.864227 2.651762,355.003693 0.999999,361.000000   C1.000000,241.041000 1.000000,121.082008 1.000000,1.061508   C171.567322,1.061508 342.134674,1.061508 513.000000,1.061508   C513.000000,133.355194 513.000000,265.710632 512.664795,398.422180   C509.786621,389.852264 497.916962,387.747314 491.089172,391.928925   C485.407623,395.408478 484.554688,401.163055 484.099670,406.770355   C482.865997,421.973480 469.243652,434.994934 453.972656,434.996918   C394.990326,435.004608 336.007996,435.015076 277.025696,434.957306   C273.943390,434.954285 270.789948,434.641632 267.790955,433.948334   C242.784073,428.167389 229.267960,401.391541 241.121277,377.897491   C247.964783,364.333191 259.695587,357.311005 274.822021,356.000641   C281.990845,355.379639 287.246033,350.619720 287.995605,344.067139   C288.874725,336.381836 285.257568,329.662201 278.104309,328.180878   C273.167877,327.158630 267.616608,327.188110 262.703552,328.322235   C246.603882,332.038544 232.713104,339.591370 222.327438,353.048492   C214.466995,363.233521 209.554367,374.634735 208.159729,387.186768   C206.383209,403.175873 209.322006,418.654816 218.167831,432.287201   C231.127686,452.259766 249.827408,463.638245 273.709473,463.837769   C332.854309,464.331879 392.006042,464.022156 451.154907,463.956604   C455.742188,463.951538 460.411499,463.767487 464.900635,462.916931   C480.110626,460.035126 493.028229,452.785706 501.473724,439.705353   C506.356812,432.142365 509.224976,423.278412 513.000000,415.000000  z"/>
<path fill="#2D527C" opacity="1.000000" stroke="none" d=" M0.999999,361.468658   C2.651762,355.003693 3.908861,348.864227 6.023489,343.035858   C15.273140,317.541809 32.699013,299.865143 57.947540,290.022949   C62.437904,288.272552 67.323692,287.543396 71.833969,285.833710   C73.500244,285.202087 75.465919,283.299744 75.844818,281.644897   C80.685585,260.502930 90.341713,241.610016 103.800209,224.923050   C126.238716,197.101898 155.268112,179.476089 190.569122,173.146011   C201.988831,171.098251 213.890701,169.481171 225.322083,170.492401   C233.998077,171.259872 238.191635,169.121307 241.170349,161.667969   C242.283066,158.883682 244.521606,156.549316 246.356201,153.848816   C235.642044,143.138214 225.163681,132.667145 214.689758,122.191612   C207.534775,115.035522 207.121475,106.533974 213.312653,100.125214   C218.023849,95.248451 228.250671,94.058128 235.124298,101.433792   C245.224838,112.272049 255.961136,122.517830 266.710541,133.300903   C270.076233,131.179688 273.309296,129.075668 276.605774,127.076210   C289.493408,119.259300 303.202118,113.751038 318.280609,111.795158   C319.371277,111.653679 320.856995,108.744995 320.880859,107.104309   C321.086945,92.942795 320.991913,78.777000 321.002777,64.612503   C321.008148,57.616882 323.948120,53.072449 329.769318,50.985390   C336.273682,48.653393 343.247681,50.132103 346.869690,55.673519   C348.786896,58.606651 349.766266,62.625240 349.864441,66.189720   C350.213013,78.844849 350.067383,91.515984 349.964539,104.179886   C349.928040,108.674385 349.631287,111.463066 356.200684,112.459518   C371.902771,114.841240 386.138458,121.809067 399.291565,130.786819   C400.486237,131.602234 401.732971,132.341309 403.179810,133.257935   C413.880188,122.573822 424.448334,111.975510 435.070679,101.431747   C442.153625,94.401207 450.624115,94.149399 457.175720,100.672394   C463.115234,106.585968 462.499207,115.944725 455.597870,122.892281   C445.149139,133.410965 434.636200,143.865875 424.109344,154.389069   C436.066376,170.366669 443.560791,188.078781 446.221283,207.999496   C461.829315,207.999496 477.145844,208.281921 492.445709,207.899170   C502.474213,207.648300 507.494385,214.896103 507.851501,222.629410   C508.198425,230.142822 500.506561,236.942383 492.368469,236.980225   C477.208008,237.050705 462.046936,237.000443 447.330505,237.000443   C443.803284,247.932861 440.306671,258.622772 436.979553,269.365143   C436.715607,270.217316 437.305176,271.833771 438.038177,272.421844   C457.012390,287.644318 467.956848,307.909149 473.732666,330.986481   C475.777588,339.156982 475.588715,347.944092 475.915649,356.468994   C476.183746,363.460083 469.814301,369.422699 462.356964,369.909729   C456.536133,370.289856 449.094971,365.004852 448.060791,359.297607   C446.526184,350.828735 445.654541,342.233795 443.959717,333.801270   C441.701385,322.565002 435.928925,312.922455 428.673370,304.256866   C418.103699,291.632996 404.769165,282.864075 389.030457,278.115692   C375.945679,274.167999 362.618530,273.985931 349.301941,277.326874   C343.113831,278.879333 336.769257,280.903198 331.211914,275.959320   C329.113251,274.092285 327.236511,271.640900 326.100983,269.082092   C320.062225,255.474243 311.912109,243.140106 301.213257,233.024475   C284.671143,217.384109 265.548584,205.780411 242.582672,202.062408   C233.715790,200.626907 224.696121,199.017181 215.785553,199.220108   C200.767776,199.562149 186.220032,202.867172 172.231873,208.854172   C155.127747,216.174835 140.690216,227.049194 128.732346,240.968964   C115.514809,256.355103 106.669296,274.163300 102.988983,294.309387   C102.608994,296.389465 102.288109,298.489136 101.751404,300.530212   C99.711540,308.287720 94.577393,312.439789 86.474464,312.998840   C59.730377,314.843933 36.524532,334.240662 31.129377,360.526978   C24.136885,394.595978 43.920242,425.431366 77.794472,433.819824   C81.573318,434.755615 85.613525,434.937653 89.534225,434.950500   C117.529663,435.042358 145.525543,434.992371 173.521271,435.004364   C180.991684,435.007568 187.662109,439.860809 188.972916,446.179382   C190.466415,453.378540 186.750427,460.122253 179.412506,463.122253   C177.817627,463.774261 175.936935,463.962097 174.187195,463.965210   C146.024902,464.015137 117.862411,463.955963 89.700157,464.016022   C70.829529,464.056244 53.574173,458.491913 38.454327,447.601105   C22.415224,436.048187 10.743826,420.773071 4.958551,401.547150   C3.562312,396.907043 2.802201,392.075531 1.374779,387.166016   C1.000000,378.645782 1.000000,370.291534 0.999999,361.468658  M356.849396,247.057617   C375.699219,245.591766 393.938080,248.170456 411.255554,255.820663   C429.506226,215.783325 411.631165,167.121628 372.495026,147.738510   C330.332031,126.856232 283.685516,146.156891 265.344879,177.808762   C265.579285,178.038101 265.774078,178.358429 266.055115,178.480621   C267.119476,178.943512 268.206543,179.356155 269.294373,179.762878   C301.359192,191.751572 326.288635,212.481918 343.843994,241.755249   C347.093658,247.174057 350.164917,249.205460 356.849396,247.057617  z"/>
<path fill="#2D527C" opacity="1.000000" stroke="none" d=" M513.000000,414.533142   C509.224976,423.278412 506.356812,432.142365 501.473724,439.705353   C493.028229,452.785706 480.110626,460.035126 464.900635,462.916931   C460.411499,463.767487 455.742188,463.951538 451.154907,463.956604   C392.006042,464.022156 332.854309,464.331879 273.709473,463.837769   C249.827408,463.638245 231.127686,452.259766 218.167831,432.287201   C209.322006,418.654816 206.383209,403.175873 208.159729,387.186768   C209.554367,374.634735 214.466995,363.233521 222.327438,353.048492   C232.713104,339.591370 246.603882,332.038544 262.703552,328.322235   C267.616608,327.188110 273.167877,327.158630 278.104309,328.180878   C285.257568,329.662201 288.874725,336.381836 287.995605,344.067139   C287.246033,350.619720 281.990845,355.379639 274.822021,356.000641   C259.695587,357.311005 247.964783,364.333191 241.121277,377.897491   C229.267960,401.391541 242.784073,428.167389 267.790955,433.948334   C270.789948,434.641632 273.943390,434.954285 277.025696,434.957306   C336.007996,435.015076 394.990326,435.004608 453.972656,434.996918   C469.243652,434.994934 482.865997,421.973480 484.099670,406.770355   C484.554688,401.163055 485.407623,395.408478 491.089172,391.928925   C497.916962,387.747314 509.786621,389.852264 512.664795,398.889160   C513.000000,404.022095 513.000000,409.044189 513.000000,414.533142  z"/>
<path fill="#CDE7F9" opacity="1.000000" stroke="none" d=" M356.390808,247.100891   C350.164917,249.205460 347.093658,247.174057 343.843994,241.755249   C326.288635,212.481918 301.359192,191.751572 269.294373,179.762878   C268.206543,179.356155 267.119476,178.943512 266.055115,178.480621   C265.774078,178.358429 265.579285,178.038101 265.349915,177.803711   C283.685516,146.156891 330.332031,126.856232 372.495026,147.738510   C411.631165,167.121628 429.506226,215.783325 411.255554,255.820663   C393.938080,248.170456 375.699219,245.591766 356.390808,247.100891  z"/>
</svg>